<svg width="20" height="14" viewBox="0 0 20 14" fill="none" xmlns="http://www.w3.org/2000/svg">
<path d="M9.95753 9.11661C7.08254 9.11661 4.65674 9.5864 4.65674 11.3995C4.65674 13.2134 7.09821 13.6667 9.95753 13.6667C12.8325 13.6667 15.2583 13.1969 15.2583 11.3838C15.2583 9.56989 12.8168 9.11661 9.95753 9.11661Z" fill="white"/>
<path opacity="0.4" d="M9.95753 7.38917C11.9043 7.38917 13.4653 5.8192 13.4653 3.86124C13.4653 1.90253 11.9043 0.333313 9.95753 0.333313C8.01077 0.333313 6.44979 1.90253 6.44979 3.86124C6.44979 5.8192 8.01077 7.38917 9.95753 7.38917Z" fill="white"/>
<path opacity="0.4" d="M17.5733 4.68272C18.077 2.7015 16.6003 0.92215 14.7199 0.92215C14.5155 0.92215 14.32 0.944664 14.129 0.982937C14.1036 0.988941 14.0753 1.0017 14.0603 1.02421C14.0432 1.05273 14.0559 1.091 14.0745 1.11577C14.6394 1.91276 14.9639 2.88311 14.9639 3.92475C14.9639 4.92287 14.6662 5.85344 14.1439 6.62567C14.0902 6.70522 14.1379 6.81254 14.2327 6.82905C14.364 6.85231 14.4983 6.86432 14.6356 6.86807C16.0049 6.90409 17.2338 6.0178 17.5733 4.68272Z" fill="white"/>
<path d="M19.0077 9.34744C18.757 8.81011 18.1519 8.44163 17.2319 8.26077C16.7976 8.15421 15.6224 8.00411 14.5292 8.02438C14.5128 8.02663 14.5039 8.03789 14.5024 8.04539C14.5001 8.0559 14.5046 8.07391 14.5262 8.08516C15.0314 8.33657 16.9841 9.43 16.7386 11.7362C16.7282 11.836 16.808 11.9223 16.9073 11.9073C17.3878 11.8382 18.6242 11.5711 19.0077 10.7388C19.2196 10.299 19.2196 9.78797 19.0077 9.34744Z" fill="white"/>
<path opacity="0.4" d="M5.87069 0.983151C5.68041 0.944127 5.48417 0.922363 5.27972 0.922363C3.39937 0.922363 1.92271 2.70171 2.42712 4.68294C2.76588 6.01801 3.99482 6.90431 5.36404 6.86828C5.50133 6.86453 5.63639 6.85177 5.76697 6.82926C5.86173 6.81275 5.90949 6.70543 5.85576 6.62589C5.33344 5.85291 5.03572 4.92308 5.03572 3.92497C5.03572 2.88257 5.36105 1.91222 5.9259 1.11598C5.94381 1.09122 5.95724 1.05294 5.93933 1.02443C5.92441 1.00116 5.8968 0.989155 5.87069 0.983151Z" fill="white"/>
<path d="M2.76797 8.26055C1.84794 8.44141 1.24354 8.80989 0.992829 9.34722C0.780171 9.78775 0.780171 10.2988 0.992829 10.7393C1.37636 11.5708 2.61276 11.8388 3.0933 11.9071C3.19254 11.9221 3.27163 11.8365 3.26118 11.7359C3.01569 9.43052 4.96842 8.3371 5.47432 8.08569C5.49521 8.07369 5.49969 8.05643 5.49745 8.04517C5.49596 8.03766 5.48775 8.02641 5.47134 8.02491C4.37745 8.00389 3.20298 8.15399 2.76797 8.26055Z" fill="white"/>
</svg>
