<svg width="18" height="18" viewBox="0 0 18 18" fill="none" xmlns="http://www.w3.org/2000/svg">
<path opacity="0.4" d="M12.3963 0.666626H15.2179C16.3865 0.666626 17.3333 1.6215 17.3333 2.79993V5.6454C17.3333 6.82382 16.3865 7.7787 15.2179 7.7787H12.3963C11.2277 7.7787 10.2808 6.82382 10.2808 5.6454V2.79993C10.2808 1.6215 11.2277 0.666626 12.3963 0.666626Z" fill="#0095EB"/>
<path d="M5.60417 10.2213C6.7724 10.2215 7.71919 11.176 7.7194 12.3541V15.1998C7.7194 16.3773 6.77253 17.3334 5.60417 17.3336H2.7819C1.61344 17.3335 0.666668 16.3774 0.666668 15.1998V12.3541C0.66688 11.176 1.61357 10.2214 2.7819 10.2213H5.60417ZM15.2174 10.2213C16.3859 10.2213 17.3334 11.1759 17.3337 12.3541V15.1998C17.3337 16.3775 16.386 17.3336 15.2174 17.3336H12.3962C11.2276 17.3336 10.2809 16.3774 10.2809 15.1998V12.3541C10.2811 11.1759 11.2278 10.2214 12.3962 10.2213H15.2174ZM5.60417 0.666626C6.77253 0.666857 7.7194 1.62213 7.7194 2.80042V5.64514C7.7194 6.82342 6.77253 7.7787 5.60417 7.77893H2.7819C1.61344 7.77882 0.666668 6.8235 0.666668 5.64514V2.80042C0.666668 1.62206 1.61344 0.666736 2.7819 0.666626H5.60417Z" fill="#0095EB"/>
</svg>
