<svg width="92" height="92" viewBox="0 0 92 92" fill="none" xmlns="http://www.w3.org/2000/svg">
<path d="M89.355 88.4733C89.0023 88.9688 88.5367 89.3732 87.9968 89.6531C87.4569 89.9331 86.8582 90.0805 86.25 90.0833H5.75002C5.14186 90.0805 4.5431 89.9331 4.0032 89.6531C3.46329 89.3732 2.99775 88.9688 2.64502 88.4733C17.7867 54.7975 14.6434 61.7933 19.1667 51.75H72.8334C77.7017 62.5792 74.0984 54.5867 89.355 88.4733Z" fill="#545353"/>
<path d="M19.1666 26.8334V51.75C14.2983 62.5792 17.9016 54.5867 2.64498 88.4734C2.16426 87.8325 1.90827 87.0511 1.91664 86.25V59.4167L19.1666 26.8334Z" fill="url(#paint0_linear_34_2060)"/>
<path d="M90.0833 59.4167V86.25C90.0917 87.0511 89.8357 87.8325 89.355 88.4734C74.2133 54.7975 77.3566 61.7934 72.8333 51.75V26.8334L90.0833 59.4167Z" fill="url(#paint1_linear_34_2060)"/>
<path d="M90.0834 59.4166V86.25C90.0834 87.2666 89.6795 88.2416 88.9606 88.9605C88.2417 89.6794 87.2667 90.0833 86.25 90.0833H5.75002C4.73336 90.0833 3.75833 89.6794 3.03944 88.9605C2.32055 88.2416 1.91669 87.2666 1.91669 86.25V59.4166H34.6725C35.1348 59.4114 35.5833 59.5734 35.9355 59.8728C36.2877 60.1722 36.5199 60.5888 36.5892 61.0458C36.8847 62.7799 37.6519 64.3992 38.8065 65.7263C39.9612 67.0534 41.4589 68.0371 43.1355 68.5696C44.8121 69.102 46.6029 69.1628 48.3117 68.7451C50.0205 68.3274 51.5814 67.4475 52.8234 66.2016C54.2169 64.7952 55.1465 62.9961 55.4875 61.0458C55.5568 60.5888 55.789 60.1722 56.1412 59.8728C56.4934 59.5734 56.942 59.4114 57.4042 59.4166H90.0834Z" fill="url(#paint2_linear_34_2060)"/>
<path d="M72.8334 26.8334H19.1667V51.75H72.8334V26.8334Z" fill="#737373"/>
<foreignObject x="23.85" y="-3.00632" width="44.3" height="48.8847"><div xmlns="http://www.w3.org/1999/xhtml" style="backdrop-filter:blur(2.45px);clip-path:url(#bgblur_0_34_2060_clip_path);height:100%;width:100%"></div></foreignObject><path data-figma-bg-blur-radius="4.9" d="M63.25 19.1667C63.2544 15.8827 62.3212 12.6657 60.5602 9.89372C58.7993 7.12178 56.2836 4.91012 53.309 3.51866C50.3343 2.1272 47.0243 1.61377 43.7679 2.03871C40.5115 2.46366 37.444 3.80932 34.9261 5.91755C32.4081 8.02577 30.5443 10.8089 29.5536 13.94C28.5629 17.071 28.4866 20.4197 29.3336 23.5926C30.1806 26.7656 31.9157 29.6308 34.3349 31.8515C36.7542 34.0723 39.7572 35.5563 42.9908 36.1292L45.1375 40.4609C45.2209 40.6172 45.3451 40.7479 45.4971 40.8391C45.649 40.9302 45.8228 40.9784 46 40.9784C46.1772 40.9784 46.351 40.9302 46.5029 40.8391C46.6548 40.7479 46.7791 40.6172 46.8625 40.4609L49.0092 36.1292C52.9962 35.4228 56.6078 33.3364 59.2113 30.2352C61.8149 27.1341 63.2446 23.2159 63.25 19.1667Z" fill="#FF2A5B" fill-opacity="0.32"/>
<path d="M48.7025 19.1667L53.1108 14.7775C53.4718 14.4166 53.6745 13.9271 53.6745 13.4167C53.6745 12.9063 53.4718 12.4168 53.1108 12.0559C52.7499 11.6949 52.2604 11.4922 51.75 11.4922C51.2396 11.4922 50.7501 11.6949 50.3892 12.0559L46 16.4642L41.6108 12.0559C41.4321 11.8772 41.22 11.7354 40.9865 11.6387C40.753 11.542 40.5027 11.4922 40.25 11.4922C39.7396 11.4922 39.2501 11.6949 38.8892 12.0559C38.5283 12.4168 38.3255 12.9063 38.3255 13.4167C38.3255 13.9271 38.5283 14.4166 38.8892 14.7775L43.2975 19.1667L38.8892 23.5559C38.7105 23.7346 38.5687 23.9467 38.472 24.1802C38.3753 24.4137 38.3255 24.664 38.3255 24.9167C38.3255 25.4271 38.5283 25.9166 38.8892 26.2775C39.2501 26.6384 39.7396 26.8412 40.25 26.8412C40.5027 26.8412 40.753 26.7914 40.9865 26.6947C41.22 26.598 41.4321 26.4562 41.6108 26.2775L46 21.8692L50.3892 26.2775C50.7501 26.6384 51.2396 26.8412 51.75 26.8412C52.2604 26.8412 52.7499 26.6384 53.1108 26.2775C53.4718 25.9166 53.6745 25.4271 53.6745 24.9167C53.6745 24.4063 53.4718 23.9168 53.1108 23.5559L48.7025 19.1667Z" fill="#FF2A5B"/>
<path d="M21.0834 72.8334H9.58335C8.52481 72.8334 7.66669 73.6915 7.66669 74.75V82.4167C7.66669 83.4753 8.52481 84.3334 9.58335 84.3334H21.0834C22.1419 84.3334 23 83.4753 23 82.4167V74.75C23 73.6915 22.1419 72.8334 21.0834 72.8334Z" fill="#4D4C4C"/>
<path d="M17.25 80.5H13.4167C12.9083 80.5 12.4208 80.298 12.0614 79.9386C11.7019 79.5791 11.5 79.0916 11.5 78.5833C11.5 78.075 11.7019 77.5874 12.0614 77.228C12.4208 76.8686 12.9083 76.6666 13.4167 76.6666H17.25C17.7583 76.6666 18.2458 76.8686 18.6053 77.228C18.9647 77.5874 19.1667 78.075 19.1667 78.5833C19.1667 79.0916 18.9647 79.5791 18.6053 79.9386C18.2458 80.298 17.7583 80.5 17.25 80.5Z" fill="#0095EB"/>
<path d="M32.5833 84.3334H28.75C28.2416 84.3334 27.7541 84.1314 27.3947 83.772C27.0352 83.4126 26.8333 82.925 26.8333 82.4167C26.8333 81.9084 27.0352 81.4209 27.3947 81.0614C27.7541 80.702 28.2416 80.5 28.75 80.5H32.5833C33.0916 80.5 33.5792 80.702 33.9386 81.0614C34.298 81.4209 34.5 81.9084 34.5 82.4167C34.5 82.925 34.298 83.4126 33.9386 83.772C33.5792 84.1314 33.0916 84.3334 32.5833 84.3334ZM36.4166 76.6667H28.75C28.2416 76.6667 27.7541 76.4648 27.3947 76.1053C27.0352 75.7459 26.8333 75.2584 26.8333 74.75C26.8333 74.2417 27.0352 73.7542 27.3947 73.3948C27.7541 73.0353 28.2416 72.8334 28.75 72.8334H36.4166C36.925 72.8334 37.4125 73.0353 37.7719 73.3948C38.1314 73.7542 38.3333 74.2417 38.3333 74.75C38.3333 75.2584 38.1314 75.7459 37.7719 76.1053C37.4125 76.4648 36.925 76.6667 36.4166 76.6667Z" fill="#0095EB"/>
<defs>
<clipPath id="bgblur_0_34_2060_clip_path" transform="translate(-23.85 3.00632)"><path d="M63.25 19.1667C63.2544 15.8827 62.3212 12.6657 60.5602 9.89372C58.7993 7.12178 56.2836 4.91012 53.309 3.51866C50.3343 2.1272 47.0243 1.61377 43.7679 2.03871C40.5115 2.46366 37.444 3.80932 34.9261 5.91755C32.4081 8.02577 30.5443 10.8089 29.5536 13.94C28.5629 17.071 28.4866 20.4197 29.3336 23.5926C30.1806 26.7656 31.9157 29.6308 34.3349 31.8515C36.7542 34.0723 39.7572 35.5563 42.9908 36.1292L45.1375 40.4609C45.2209 40.6172 45.3451 40.7479 45.4971 40.8391C45.649 40.9302 45.8228 40.9784 46 40.9784C46.1772 40.9784 46.351 40.9302 46.5029 40.8391C46.6548 40.7479 46.7791 40.6172 46.8625 40.4609L49.0092 36.1292C52.9962 35.4228 56.6078 33.3364 59.2113 30.2352C61.8149 27.1341 63.2446 23.2159 63.25 19.1667Z"/>
</clipPath><linearGradient id="paint0_linear_34_2060" x1="10.5416" y1="88.4734" x2="10.5416" y2="26.8334" gradientUnits="userSpaceOnUse">
<stop stop-color="#4A4949"/>
<stop offset="1" stop-color="#848484"/>
</linearGradient>
<linearGradient id="paint1_linear_34_2060" x1="81.4583" y1="88.4734" x2="81.4583" y2="4.23123e-05" gradientUnits="userSpaceOnUse">
<stop stop-color="#4B4A4A"/>
<stop offset="1" stop-color="#808080"/>
</linearGradient>
<linearGradient id="paint2_linear_34_2060" x1="46" y1="59" x2="46" y2="90.0833" gradientUnits="userSpaceOnUse">
<stop stop-color="#868686"/>
<stop offset="1" stop-color="#474646"/>
</linearGradient>
</defs>
</svg>
