<svg width="20" height="20" viewBox="0 0 20 20" fill="none" xmlns="http://www.w3.org/2000/svg">
<path d="M8.46063 4.62962C8.50307 4.716 8.5311 4.80852 8.54365 4.90362L8.77568 8.35356L8.89086 10.0876C8.89205 10.2659 8.92003 10.4431 8.97389 10.6134C9.113 10.9438 9.44763 11.1538 9.81171 11.1392L15.3594 10.7763C15.5997 10.7723 15.8317 10.8622 16.0044 11.0261C16.1483 11.1627 16.2412 11.3413 16.2705 11.5335L16.2803 11.6502C16.0507 14.8291 13.716 17.4806 10.5436 18.165C7.37129 18.8495 4.11822 17.4036 2.55059 14.6124C2.09865 13.8015 1.81637 12.9102 1.72032 11.9908C1.68019 11.7187 1.66252 11.4438 1.66748 11.1688C1.66253 7.76062 4.08956 4.81414 7.48694 4.10381C7.89584 4.04015 8.29669 4.25661 8.46063 4.62962Z" fill="white"/>
<path opacity="0.4" d="M10.725 1.66737C14.5249 1.76404 17.7186 4.49651 18.3333 8.17693L18.3275 8.20408L18.3107 8.24358L18.313 8.35199C18.3043 8.49561 18.2489 8.6338 18.1533 8.74542C18.0538 8.8617 17.9178 8.94088 17.768 8.97161L17.6767 8.98414L11.276 9.39886C11.0631 9.41986 10.8511 9.35121 10.6928 9.20998C10.5608 9.0923 10.4765 8.93343 10.4527 8.76225L10.023 2.37091C10.0156 2.34929 10.0156 2.32587 10.023 2.30425C10.0289 2.12808 10.1065 1.96155 10.2384 1.84188C10.3703 1.7222 10.5455 1.65935 10.725 1.66737Z" fill="white"/>
</svg>
