<svg width="18" height="18" viewBox="0 0 18 18" fill="none" xmlns="http://www.w3.org/2000/svg">
<path d="M7.46063 3.62962C7.50307 3.716 7.5311 3.80852 7.54365 3.90362L7.77568 7.35356V7.35356L7.89086 9.08757C7.89205 9.26589 7.92003 9.44306 7.97389 9.61337C8.113 9.94381 8.44763 10.1538 8.81171 10.1392L14.3594 9.7763C14.5997 9.77234 14.8317 9.86219 15.0044 10.0261C15.1483 10.1627 15.2412 10.3413 15.2705 10.5335L15.2803 10.6502C15.0507 13.8291 12.716 16.4806 9.54363 17.165C6.37129 17.8495 3.11822 16.4036 1.55059 13.6124C1.09865 12.8015 0.816373 11.9102 0.720316 10.9908C0.680188 10.7187 0.662519 10.4438 0.66748 10.1688C0.662526 6.76062 3.08956 3.81414 6.48694 3.10381C6.89584 3.04015 7.29669 3.25661 7.46063 3.62962Z" fill="#0095EB"/>
<path opacity="0.4" d="M9.72501 0.667431C13.5249 0.764104 16.7186 3.49657 17.3333 7.17699L17.3275 7.20414L17.3107 7.24364L17.313 7.35205C17.3043 7.49567 17.2489 7.63386 17.1533 7.74549C17.0538 7.86176 16.9178 7.94094 16.768 7.97167L16.6767 7.98421L10.276 8.39892C10.0631 8.41992 9.85112 8.35127 9.69279 8.21004C9.56085 8.09236 9.4765 7.93349 9.45267 7.76231L9.02305 1.37097C9.01557 1.34936 9.01557 1.32593 9.02305 1.30432C9.02892 1.12814 9.10647 0.961615 9.23837 0.84194C9.37027 0.722265 9.54554 0.659414 9.72501 0.667431Z" fill="white"/>
</svg>
