<svg width="18" height="18" viewBox="0 0 18 18" fill="none" xmlns="http://www.w3.org/2000/svg">
<path fill-rule="evenodd" clip-rule="evenodd" d="M11.7023 2.94789C11.7023 4.79871 13.2049 6.29911 15.0585 6.29911C15.2626 6.2981 15.4661 6.27851 15.6667 6.24057V12.8845C15.6667 15.6796 14.0179 17.3333 11.2187 17.3333H5.12197C2.31542 17.3333 0.666668 15.6796 0.666668 12.8845V6.79667C0.666668 4.00154 2.31542 2.33325 5.12197 2.33325H11.761C11.7216 2.53576 11.7019 2.7416 11.7023 2.94789ZM9.95831 11.4137L12.3398 8.34057V8.32593C12.5437 8.05197 12.4917 7.66566 12.2226 7.4552C12.0924 7.35466 11.9268 7.31113 11.7639 7.33457C11.6009 7.35802 11.4545 7.44642 11.3579 7.57959L9.35011 10.1625L7.06383 8.36252C6.93331 8.26083 6.76726 8.21593 6.60318 8.23796C6.4391 8.25999 6.29082 8.34709 6.19183 8.47959L3.72969 11.6552C3.64314 11.7631 3.59655 11.8975 3.59779 12.0357C3.5835 12.315 3.7599 12.5688 4.02698 12.6531C4.29407 12.7374 4.58448 12.631 4.73359 12.3942L6.79271 9.73081L9.07898 11.5235C9.20902 11.6283 9.37616 11.6759 9.542 11.6552C9.70784 11.6345 9.85812 11.5473 9.95831 11.4137Z" fill="white"/>
<circle opacity="0.4" cx="15.25" cy="2.74996" r="2.08333" fill="white"/>
</svg>
