<svg width="18" height="18" viewBox="0 0 18 18" fill="none" xmlns="http://www.w3.org/2000/svg">
<path fill-rule="evenodd" clip-rule="evenodd" d="M11.7023 2.94813C11.7023 4.79896 13.2049 6.29935 15.0585 6.29935C15.2626 6.29834 15.4661 6.27875 15.6667 6.24081V12.8847C15.6667 15.6798 14.0179 17.3335 11.2187 17.3335H5.12197C2.31542 17.3335 0.666668 15.6798 0.666668 12.8847V6.79691C0.666668 4.00179 2.31542 2.3335 5.12197 2.3335H11.761C11.7216 2.536 11.7019 2.74184 11.7023 2.94813ZM9.95831 11.414L12.3398 8.34081V8.32618C12.5437 8.05222 12.4917 7.66591 12.2226 7.45545C12.0924 7.3549 11.9268 7.31138 11.7639 7.33482C11.6009 7.35826 11.4545 7.44667 11.3579 7.57984L9.35011 10.1628L7.06383 8.36276C6.93331 8.26107 6.76726 8.21618 6.60318 8.2382C6.4391 8.26023 6.29082 8.34733 6.19183 8.47984L3.72969 11.6554C3.64314 11.7633 3.59655 11.8977 3.59779 12.0359C3.5835 12.3153 3.7599 12.569 4.02698 12.6533C4.29407 12.7376 4.58448 12.6313 4.73359 12.3945L6.79271 9.73106L9.07898 11.5237C9.20902 11.6286 9.37616 11.6761 9.542 11.6554C9.70784 11.6347 9.85812 11.5476 9.95831 11.414Z" fill="#0095EB"/>
<circle opacity="0.4" cx="15.25" cy="2.75008" r="2.08333" fill="#0095EB"/>
</svg>
